# xmcd CD database file
#
# Track frame offsets:
#	150
#	53848
#	78457
#	111939
#	121304
#	188402
#	196344
#	206266
#	213723
#	220942
#	227662
#	234775
#	242066
#	250437
#	276211
#	287616
#	297424
#
# Disc length: 4107 seconds
#
# Revision: 2
# Processed by: cddbd v1.5.2PL0 Copyright (c) Steve Scherf et al.
# Submitted via: CDex 1.51
#
DISCID=fc100911
DTITLE=Karlheinz Stockhausen - bass clarinet (Volker Hemken) and piano (Steffen Schleiermacher)
DYEAR=2007
DGENRE=Musique Contemporaine
TTITLE0=Klavierstück IX  (1956-61)
TTITLE1=Tanze Luzefai (1979) from 'Michaels Jugend, Donnerstag, Light' for bass clarinet
TTITLE2=Klavierstück VII  (1954)
TTITLE3=Klavierstück VIII  (1954)
TTITLE4=In Freundschaft  (1977-79 (for bass clarinet)
TTITLE5=Tierkreis (1975) Melodie of the Star Signs ( and piano) - I. Aquarius
TTITLE6=Tierkreis (1975) Melodie of the Star Signs (bass clarinet and piano) - II. Pisces
TTITLE7=Tierkreis (1975) Melodie of the Star Signs (bass clarinet and piano) - III. Aries
TTITLE8=Tierkreis (1975) Melodie of the Star Signs (bass clarinet and piano) - IV. Taurus
TTITLE9=Tierkreis (1975) Melodie of the Star Signs (bass clarinet and piano) - V. Gemini
TTITLE10=Tierkreis (1975) Melodie of the Star Signs (bass clarinet and piano) - VI. Cancer
TTITLE11=Tierkreis (1975) Melodie of the Star Signs (bass clarinet and piano) - VII. Leo
TTITLE12=Tierkreis (1975) Melodie of the Star Signs (bass clarinet and piano) - VIII. Virgo
TTITLE13=Tierkreis (1975) Melodie of the Star Signs (bass clarinet and piano) - IX. Libra
TTITLE14=Tierkreis (1975) Melodie of the Star Signs (bass clarinet and piano) - X. Scorpio
TTITLE15=Tierkreis (1975) Melodie of the Star Signs (bass clarinet and piano) - XI. Sagittarius
TTITLE16=Tierkreis (1975) Melodie of the Star Signs (bass clarinet and piano) - XII. Capricorn
EXTD=YEAR: 2007
EXTT0=
EXTT1=
EXTT2=
EXTT3=
EXTT4=
EXTT5=
EXTT6=
EXTT7=
EXTT8=
EXTT9=
EXTT10=
EXTT11=
EXTT12=
EXTT13=
EXTT14=
EXTT15=
EXTT16=
PLAYORDER=
